<svg id="Layer_1" data-name="Layer 1" xmlns="http://www.w3.org/2000/svg" viewBox="0 0 216 216"><defs><style>.cls-1{fill:#fcc9a7;}</style></defs><path class="cls-1" d="M188.8,148l8.91,2.95a14.19,14.19,0,0,1,2,.78,3,3,0,0,1,1.66,3.94,3.18,3.18,0,0,1-4,1.92c-3.23-1-6.47-2-9.66-3.07a1.63,1.63,0,0,0-2.38.91c-5.17,9.67-13.22,16.29-22.7,21.42-11.15,6-23.13,9.23-35.61,11.09a145.39,145.39,0,0,1-29,1.39,130,130,0,0,1-29.7-5,91.3,91.3,0,0,1-23-10.19,49.94,49.94,0,0,1-18.08-18.65c-.58-1.07-1.12-1.37-2.35-1-3.19,1.1-6.43,2.05-9.67,3a3,3,0,0,1-4.06-2,3,3,0,0,1,2-3.95c2.74-1,5.53-1.81,8.32-2.65,2.45-.74,2.45-.73,1.75-3.25a60.52,60.52,0,0,1-1.54-6.35c-.22-1.4-.9-1.64-2-1.44-3.13.57-6.24,1.18-9.37,1.74a14.7,14.7,0,0,1-2.56.25A3,3,0,0,1,4.44,137a2.82,2.82,0,0,1,2.31-3.26c3.41-.77,6.87-1.37,10.31-2,.19,0,.4,0,.6,0,3.19-.59,3.29-.79,3-4a42.41,42.41,0,0,1,0-4.51c0-1.15-.49-1.64-1.64-1.79-3.94-.49-7.87-1-11.8-1.61a3.66,3.66,0,0,1-3.2-3.5,3.2,3.2,0,0,1,3.75-2.92c3.36.33,6.69.91,10,1.38l1.18.18c1.56.27,2.38,0,2.71-1.94A70.38,70.38,0,0,1,31.3,88.28c.8-1.32.67-3.34.6-5C31.6,76.64,31,70,30.79,63.4c-.19-5.5-.29-11,.07-16.51.5-7.59,1.17-15.23,4.4-22.27a19.14,19.14,0,0,1,4.42-6.26c3.5-3.09,7.45-1.74,11.19-.11,6.23,2.72,11.45,7,16.51,11.37A175.35,175.35,0,0,1,88,51.26c1.21,1.49,2.71.94,4,.76a98.18,98.18,0,0,1,25.17-.35c1.19.15,2.37.26,3.55.4a4.55,4.55,0,0,0,4.6-1.71c8.93-10.67,18.37-20.88,30.09-28.6A50.27,50.27,0,0,1,166,16.93c3.82-1.38,6.67.62,8.93,3.55,3,3.89,4.2,8.54,5.13,13.22a125.28,125.28,0,0,1,2,28.14c-.21,7.42-1,14.82-1.48,22.23a7.77,7.77,0,0,0,1,4.92A69.83,69.83,0,0,1,191,113.71a2,2,0,0,0,1.52,1.16c3.35-.34,6.69-.86,10-1.31a17.62,17.62,0,0,1,2.16-.24c2.26,0,3.68,1.1,3.76,3a3.61,3.61,0,0,1-3.23,3.48c-2.74.44-5.49.82-8.24,1.22-.33,0-.67,0-1,.06-3.95.43-3.95.43-3.92,4.3a11,11,0,0,1-.05,3c-.61,2.14.15,3,2.26,3.25,3.34.46,6.65,1.13,10,1.75a8.38,8.38,0,0,1,2.23.75,2.83,2.83,0,0,1,1.54,3.36,2.74,2.74,0,0,1-3,2.34c-3.74-.48-7.45-1.15-11.16-1.81-1.67-.3-2.83-.48-3.07,1.91A60.92,60.92,0,0,1,188.8,148Z"/></svg>