<svg id="Layer_1" data-name="Layer 1" xmlns="http://www.w3.org/2000/svg" viewBox="0 0 216 216"><defs><style>.cls-1{fill:#fbcabc;}</style></defs><path class="cls-1" d="M205.77,104c0,9.45-19.67,15.67-22.43,24.19-2.87,8.84,9.28,25.41,3.93,32.76s-25,1-32.39,6.37-7.21,26-16,28.84c-8.52,2.77-20.49-13.9-29.94-13.9s-21.42,16.67-29.95,13.9c-8.83-2.87-8.69-23.49-16-28.84s-27,1.06-32.38-6.37,6.8-23.92,3.93-32.76C31.67,119.64,12,113.42,12,104S31.67,88.3,34.44,79.78c2.87-8.84-9.28-25.41-3.93-32.76s25-1,32.38-6.37,7.22-26,16-28.84c8.53-2.77,20.5,13.9,30,13.9S130.31,9,138.83,11.81c8.84,2.87,8.7,23.49,16,28.84s27-1.06,32.39,6.37-6.8,23.92-3.93,32.76C186.1,88.3,205.77,94.52,205.77,104Z"/></svg>