<svg id="Layer_1" data-name="Layer 1" xmlns="http://www.w3.org/2000/svg" viewBox="0 0 216 216"><defs><style>.cls-1{fill:#c8d4e7;}</style></defs><path class="cls-1" d="M107.09,192.4H66.31c-4.07,0-8.14-.06-12.21,0a3.07,3.07,0,0,1-3.1-1.92c-9.08-17.49-18.26-34.93-27.39-52.4-5.7-10.9-11.33-21.84-17-32.74a3.12,3.12,0,0,1,.28-3.78Q27.5,72.87,48.05,44.13c3.6-5,7.25-10,10.75-15.1A4.52,4.52,0,0,1,63,26.91q17.81.14,35.6.18c13.82,0,27.64,0,41.46.08,4.35,0,8.69.2,13,.26a4.66,4.66,0,0,1,4.12,2.27c8.16,11.82,16.42,23.57,24.65,35.35q13.24,19,26.51,37.9a2.76,2.76,0,0,1,.13,3.34q-11,20.42-22,40.88c-7.83,14.55-15.71,29.08-23.48,43.67a3.19,3.19,0,0,1-3.27,1.91c-10-.06-19.95-.05-29.93-.06H107.09Z"/></svg>