<svg id="Layer_1" data-name="Layer 1" xmlns="http://www.w3.org/2000/svg" viewBox="0 0 216 216"><defs><style>.cls-1{fill:#c8d4e7;}</style></defs><path class="cls-1" d="M171.48,38.41a63.73,63.73,0,0,0-14.24-5.53,193,193,0,0,0-80.62-4.41,143.37,143.37,0,0,0-30.25,7.72c-14.3,5.54-20.44,18.26-17.65,33.28,6.06,32.64,11.91,65.32,18.47,97.85a36.06,36.06,0,0,0,17.22,24.54,11.7,11.7,0,0,0,6,1.65h75.83a18.24,18.24,0,0,0,13-5.5c5.79-5.94,13.92-15.71,14.77-24.49.81-8.22,2.17-16.39,3.35-24.58,3.34-23.16,6.66-46.32,10.1-69.46C189.65,55.19,183.5,45.15,171.48,38.41Z"/></svg>